<svg xmlns="http://www.w3.org/2000/svg" xmlns:xlink="http://www.w3.org/1999/xlink" version="1.1" x="0px" y="0px" viewBox="0 0 100 125" style="enable-background:new 0 0 100 100;" xml:space="preserve"><g><path d="M17.4,89h64.8c4,0,6.9-4,5.5-7.8L85,73.6c-2.9-5.4-7.8-9.4-13.6-11.2l-9-2.7c-2.6-0.8-4.1-3.6-3.2-6.2   c0.2-0.5,0.5-1,0.8-1.5l5.7-9c2.4-3.7,3.3-8.2,2.5-12.6l-0.6-3.5c-0.8-4.6-3.4-8.8-7.2-11.5c-6.4-4.6-15-4.5-21.3,0.3l0,0   c-3.3,2.5-5.7,6.2-6.6,10.3l-0.9,4c-1.1,4.7-0.2,9.5,2.3,13.6l5.4,8.6c0.4,0.4,0.7,0.9,0.8,1.5c0.9,2.6-0.5,5.4-3.2,6.2l-9,2.7   c-5.9,1.8-10.8,5.8-13.6,11.2l-2.7,7.6C10.5,85,13.4,89,17.4,89z"/></g></svg>
